<svg width="168" height="40" viewBox="0 0 168 40" fill="none" xmlns="http://www.w3.org/2000/svg">
<g clip-path="url(#clip0_3_3357)">
<path d="M39.2348 12.6497H41.9295V25.7751H48.3696V28.2936H39.2344L39.2348 12.6497Z" fill="white"/>
<path d="M52.6249 12.0007C52.926 12.0174 53.2158 12.1248 53.4584 12.3098C53.701 12.4947 53.8858 12.749 53.9899 13.0413C54.094 13.3335 54.1129 13.6509 54.0442 13.9541C53.9755 14.2573 53.8223 14.5331 53.6034 14.7473C53.3846 14.9615 53.1097 15.1048 52.8128 15.1594C52.516 15.214 52.2101 15.1776 51.9331 15.0546C51.6561 14.9316 51.4201 14.7274 51.2542 14.4673C51.0884 14.2072 51 13.9027 51 13.5913C51.005 13.3765 51.0511 13.1648 51.1356 12.9685C51.2201 12.7722 51.3413 12.595 51.4923 12.4472C51.6433 12.2994 51.8211 12.1838 52.0154 12.1072C52.2098 12.0306 52.417 11.9944 52.6249 12.0007ZM51.3627 17.193H53.9308V27.7982H51.3627V17.193Z" fill="white"/>
<path d="M53.9795 17.687H56.7827L59.5215 25.1111H59.5656L62.3265 17.687H64.9567L60.913 28.2927H58.1746L53.9795 17.687Z" fill="white"/>
<path d="M68.0269 23.9186C68.083 24.6251 68.4016 25.2818 68.9158 25.7514C69.43 26.2209 70.1001 26.467 70.786 26.438C71.3234 26.4425 71.854 26.3145 72.3339 26.0646C72.8138 25.8148 73.229 25.4503 73.545 25.0015L75.3858 26.438C74.872 27.1168 74.2117 27.6621 73.4574 28.0302C72.7031 28.3984 71.8759 28.5791 71.0419 28.5581C67.9395 28.5581 65.458 26.325 65.458 22.9898C65.458 19.6547 67.9395 17.4233 71.0419 17.4233C73.9104 17.4233 75.8558 19.4997 75.8558 23.1904V23.9195L68.0269 23.9186ZM73.2895 21.9302C73.2679 20.3834 72.2833 19.4109 70.6783 19.4109C69.1593 19.4109 68.2188 20.4058 68.0264 21.9302H73.2895Z" fill="white"/>
<path d="M87.9239 15.1677H83.2812V12.6497H95.2616V15.1677H90.6194V28.2931H87.9239V15.1677Z" fill="white"/>
<path d="M98.2278 12.4954C98.5295 12.5119 98.8199 12.6193 99.063 12.8045C99.3061 12.9897 99.4913 13.2445 99.5957 13.5373C99.7 13.8301 99.7189 14.1481 99.6501 14.4518C99.5812 14.7556 99.4276 15.0318 99.2083 15.2464C98.9889 15.4609 98.7135 15.6043 98.416 15.6588C98.1185 15.7133 97.8122 15.6766 97.5347 15.5531C97.2573 15.4296 97.021 15.2247 96.8551 14.964C96.6893 14.7032 96.6011 14.3979 96.6016 14.0859C96.6066 13.871 96.6528 13.6593 96.7374 13.4629C96.822 13.2665 96.9434 13.0893 97.0945 12.9415C97.2456 12.7937 97.4235 12.6781 97.618 12.6016C97.8125 12.525 98.0198 12.4889 98.2278 12.4954ZM96.9656 17.6877H99.5332V28.2929H96.9656V17.6877Z" fill="white"/>
<path d="M102.271 17.6871H104.711V19.3442H104.752C105.031 18.7364 105.48 18.2287 106.041 17.8862C106.601 17.5437 107.248 17.3822 107.898 17.4223C109.48 17.4223 110.572 18.0603 111.107 19.3888C111.427 18.7598 111.917 18.2397 112.516 17.8908C113.116 17.542 113.8 17.3793 114.487 17.4223C117.226 17.4223 118.189 19.4321 118.189 21.9738V28.2936H115.621V22.2842C115.621 20.9584 115.236 19.8099 113.716 19.8099C112.113 19.8099 111.514 21.1772 111.514 22.5503V28.2927H108.946V21.9747C108.946 20.6704 108.431 19.809 107.191 19.809C105.5 19.809 104.838 21.0901 104.838 22.5047V28.2927H102.271V17.6871Z" fill="white"/>
<path d="M122.907 23.9186C122.964 24.6252 123.282 25.282 123.797 25.7515C124.311 26.221 124.981 26.467 125.667 26.438C126.205 26.4425 126.736 26.3145 127.216 26.0647C127.696 25.8149 128.112 25.4504 128.428 25.0015L130.267 26.438C129.753 27.1168 129.093 27.6621 128.339 28.0302C127.585 28.3983 126.758 28.5791 125.924 28.5581C122.822 28.5581 120.34 26.325 120.34 22.9898C120.34 19.6547 122.822 17.4233 125.924 17.4233C128.792 17.4233 130.738 19.4997 130.738 23.1904V23.9195L122.907 23.9186ZM128.171 21.9302C128.15 20.3834 127.166 19.4109 125.561 19.4109C124.041 19.4109 123.1 20.4058 122.907 21.9302H128.171Z" fill="white"/>
<path d="M133.039 11.5889H135.608V28.2928H133.039V11.5889Z" fill="white"/>
<path d="M140.42 23.9186C140.476 24.6252 140.795 25.282 141.309 25.7515C141.823 26.2211 142.494 26.4671 143.18 26.438C143.717 26.4426 144.248 26.3147 144.728 26.0649C145.208 25.815 145.624 25.4505 145.94 25.0015L147.779 26.438C147.266 27.1167 146.606 27.6619 145.852 28.03C145.098 28.3982 144.271 28.579 143.437 28.5581C140.334 28.5581 137.852 26.325 137.852 22.9898C137.852 19.6547 140.334 17.4233 143.437 17.4233C146.305 17.4233 148.251 19.4997 148.251 23.1904V23.9195L140.42 23.9186ZM145.682 21.9302C145.662 20.3834 144.678 19.4109 143.073 19.4109C141.554 19.4109 140.613 20.4058 140.42 21.9302H145.682Z" fill="white"/>
<path d="M155.991 20.6254C155.773 20.2832 155.474 20.0041 155.122 19.8147C154.77 19.6253 154.377 19.5317 153.981 19.543C153.295 19.543 152.483 19.8743 152.483 20.6701C152.483 22.5696 158.024 21.0237 158.024 25.1551C158.024 27.6735 155.692 28.5577 153.594 28.5577C152.012 28.5577 150.643 28.1379 149.594 26.9229L151.307 25.2663C151.968 26.0178 152.654 26.5697 153.745 26.5697C154.495 26.5697 155.458 26.1946 155.458 25.3547C155.458 23.1671 149.916 24.8912 149.916 20.8478C149.916 18.483 151.97 17.4233 154.044 17.4233C155.412 17.4233 156.869 17.865 157.703 19.0353L155.991 20.6254Z" fill="white"/>
<path d="M165.532 20.6254C165.313 20.2831 165.014 20.004 164.662 19.8146C164.31 19.6252 163.917 19.5317 163.52 19.543C162.837 19.543 162.02 19.8743 162.02 20.6701C162.02 22.5696 167.562 21.0237 167.562 25.1551C167.562 27.6735 165.231 28.5577 163.134 28.5577C161.551 28.5577 160.182 28.1379 159.134 26.9229L160.845 25.2663C161.507 26.0178 162.193 26.5697 163.283 26.5697C164.034 26.5697 164.996 26.1946 164.996 25.3547C164.996 23.1671 159.454 24.8912 159.454 20.8478C159.454 18.483 161.507 17.4233 163.583 17.4233C164.951 17.4233 166.407 17.865 167.242 19.0353L165.532 20.6254Z" fill="white"/>
<path d="M20.8989 7.05591C20.9006 7.66822 20.7848 8.27481 20.5583 8.84067C20.3317 9.40653 19.9989 9.92045 19.579 10.3528L11.6398 18.5471L3.70628 10.3528C3.28523 9.92113 2.95139 9.40743 2.72412 8.84148C2.49685 8.27553 2.38067 7.66859 2.38234 7.05591H20.8989Z" fill="white"/>
<path d="M23.2057 38.3479V40H0.0195497V34.7033C0.017452 33.7726 0.194113 32.8507 0.539311 31.991C0.884508 31.1312 1.39139 30.3508 2.03061 29.6947L2.16301 29.5579L9.86082 21.6079L10.9504 22.7336L3.24643 30.6841L3.12021 30.8208C2.62396 31.3292 2.23037 31.9343 1.96227 32.601C1.69417 33.2677 1.5569 33.9827 1.55841 34.7046V38.3356L23.2057 38.3479Z" fill="white"/>
<path d="M21.0684 29.5589L12.7069 20.9248L21.0684 12.2907L21.2008 12.1594C22.5033 10.8464 23.2474 9.05271 23.2693 7.17308C23.2913 5.29345 22.5893 3.4818 21.3178 2.13668C20.0463 0.791568 18.3094 0.0231645 16.4893 0.000515191C14.6692 -0.0221341 12.9149 0.702819 11.6124 2.0159C10.3068 0.721256 8.5587 0.0118776 6.7489 0.0423234C4.93911 0.0727692 3.2143 0.840586 1.95022 2.17846C0.686153 3.51634 -0.0147419 5.31588 0.000235182 7.18504C0.0152123 9.0542 0.744847 10.8415 2.03018 12.1576L2.15684 12.2889L20.105 30.8144C20.6011 31.3238 20.9945 31.9296 21.2626 32.5968C21.5306 33.2641 21.668 33.9796 21.6668 34.702V37.3813H23.2057V34.702C23.2085 33.7705 23.0321 32.8477 22.6869 31.9871C22.3417 31.1265 21.8345 30.3453 21.1946 29.6888L21.0684 29.5589ZM3.84001 11.7725L3.24644 11.1686L3.12023 11.0287C2.62369 10.5192 2.22944 9.91342 1.96008 9.24619C1.69072 8.57895 1.55155 7.86337 1.55055 7.14048C1.54955 6.41758 1.68674 5.7016 1.95425 5.03357C2.22176 4.36555 2.61434 3.7586 3.10946 3.24759C3.60458 2.73657 4.19251 2.33152 4.83954 2.05565C5.48657 1.77978 6.17996 1.63853 6.87997 1.63999C7.57997 1.64145 8.27281 1.7856 8.91875 2.06416C9.5647 2.34273 10.151 2.75021 10.6442 3.26328L11.6128 4.2632L12.5815 3.26328C13.0757 2.75312 13.6623 2.34849 14.3079 2.07245C14.9534 1.79642 15.6453 1.65438 16.3441 1.65448C17.0428 1.65459 17.7346 1.79683 18.3801 2.07307C19.0256 2.3493 19.6121 2.75411 20.1061 3.26442C20.6001 3.77472 20.992 4.38052 21.2593 5.0472C21.5266 5.71389 21.6641 6.42842 21.664 7.14999C21.6639 7.87157 21.5262 8.58606 21.2587 9.25267C20.9912 9.91928 20.5992 10.525 20.105 11.0351L19.3897 11.7794L11.6124 19.8037L3.84001 11.7725Z" fill="white"/>
<path d="M20.6926 37.5472L11.6218 37.5512L2.54404 37.5472C2.54404 37.5472 2.52992 37.5016 2.60406 37.4054C2.74925 37.2186 3.21749 36.8462 4.7409 36.2847C4.74972 36.2847 4.75502 36.2797 4.75988 36.2797L10.2688 34.2667C10.2732 34.2617 10.2825 34.2617 10.2926 34.2571C11.1898 33.8657 11.3999 33.3488 11.44 33.0549V25.1682H11.7953V33.0549C11.8328 33.3493 12.0429 33.8661 12.9427 34.2571C12.952 34.2617 12.9608 34.2617 12.9661 34.2667L18.4754 36.2797C18.4798 36.2797 18.4891 36.2847 18.4935 36.2847C20.0178 36.8458 20.4905 37.2186 20.6304 37.4054C20.7076 37.5038 20.6926 37.5472 20.6926 37.5472Z" fill="white"/>
</g>
<defs>
<clipPath id="clip0_3_3357">
<rect width="168" height="40" fill="white"/>
</clipPath>
</defs>
</svg>
